<?xml version="1.0" encoding="UTF-8"?>
<svg id="Layer_1" data-name="Layer 1" xmlns="http://www.w3.org/2000/svg" viewBox="0 0 115.54 42.47">
  <defs>
    <style>
      .cls-1 {
        fill: #f39200;
        stroke: #f39200;
        stroke-width: .5px;
      }
    </style>
  </defs>
  <path class="cls-1" d="M4.02,24.91c1.47,1.37,3.23,2.06,5.27,2.06,1.57,0,2.81-.41,3.69-1.24,1.11-1.04,1.67-2.7,1.67-4.97,0-1.44-.67-2.68-2-3.7-.79-.64-2.26-1.42-4.42-2.34-2.5-1.09-4.22-2.01-5.15-2.77-1.6-1.3-2.39-2.91-2.39-4.83s.56-3.56,1.69-4.8C3.65.99,5.43.33,7.73.33c1.61,0,3.01.25,4.18.75,1.11.5,2.18,1.32,3.21,2.45l-1.27,2.31c-.75-1.23-1.53-2.2-2.36-2.91-1.21-1.02-2.53-1.53-3.97-1.53-1.27,0-2.34.36-3.21,1.07-1.07.92-1.6,2.29-1.6,4.09,0,1.42.65,2.64,1.94,3.66.79.59,2.27,1.37,4.46,2.34,2.46,1.09,4.17,2.02,5.12,2.81,1.62,1.35,2.42,3.03,2.42,5.04,0,2.77-.78,4.79-2.33,6.04-1.31,1.07-3.27,1.6-5.87,1.6-2.16,0-4-.5-5.51-1.5-.97-.64-1.86-1.53-2.66-2.66l.61-3.37c1.07,1.99,2.12,3.46,3.15,4.4Z"/>
  <path class="cls-1" d="M31.71.92h13.02v1.1h-11.02v11.3h10.51v1.07h-10.51v12.01h11.66v1.07h-13.66V.92Z"/>
  <path class="cls-1" d="M62.16,20.5c0,2.11.63,3.73,1.88,4.87,1.17,1.07,2.81,1.6,4.91,1.6,1.7,0,3.17-.48,4.42-1.46,1.53-1.21,2.3-2.94,2.3-5.19V.93h.93v19.64c0,2.27-.76,4.1-2.27,5.47-1.47,1.33-3.4,2-5.78,2s-4.18-.68-5.75-2.03c-1.76-1.52-2.63-3.5-2.63-5.97V.93h2v19.57Z"/>
  <path class="cls-1" d="M93.34.25h.55l8.99,23.69L111.36.32h.82l3.09,27.14h-2.63l-2.03-22.06-8.02,22.38h-.45l-8.24-21.45-1.45,21.13h-1.21L93.34.25Z"/>
  <path class="cls-1" d="M6.73,33.19c.78,0,1.41.24,1.87.72.42.44.63.98.63,1.62s-.21,1.16-.63,1.6c-.46.49-1.09.73-1.87.73h-2.29v4.17h-.7v-8.84h2.99ZM6.46,37.51c.65,0,1.16-.21,1.55-.63.35-.37.52-.82.52-1.35s-.17-1-.52-1.36c-.39-.41-.9-.62-1.55-.62h-2.02v3.95h2.02Z"/>
  <path class="cls-1" d="M21.03,32.99h.42l3.18,9.05h-1l-1.05-3.21h-3.16l-1.1,3.21h-.44l3.15-9.05ZM19.53,38.45h2.92l-1.43-4.46-1.49,4.46Z"/>
  <path class="cls-1" d="M36.29,33.19c.79,0,1.42.23,1.87.7.42.42.63.95.63,1.59,0,.55-.17,1.03-.51,1.42-.34.4-.78.65-1.33.73l2.09,4.4h-1.04l-1.93-4.35h-2.01v4.35h-.71v-8.84h2.94ZM36.02,37.34c.66,0,1.17-.19,1.55-.57.35-.34.52-.77.52-1.29s-.17-.99-.52-1.35c-.38-.39-.9-.58-1.55-.58h-1.96v3.78h1.96Z"/>
  <path class="cls-1" d="M50.28,33.56h-2.79v-.37h6.29v.37h-2.79v8.48h-.71v-8.48Z"/>
  <path class="cls-1" d="M62.5,33.11h.12l5.42,7.46v-7.39h.32v8.9h-.11l-5.43-7.45v7.39h-.32v-8.91Z"/>
  <path class="cls-1" d="M77.54,33.19h4.59v.37h-3.89v3.76h3.71v.36h-3.71v4h4.11v.36h-4.82v-8.84Z"/>
  <path class="cls-1" d="M94.15,33.19c.79,0,1.42.23,1.87.7.42.42.63.95.63,1.59,0,.55-.17,1.03-.51,1.42-.34.4-.78.65-1.33.73l2.09,4.4h-1.04l-1.93-4.35h-2.01v4.35h-.71v-8.84h2.94ZM93.88,37.34c.66,0,1.17-.19,1.55-.57.35-.34.52-.77.52-1.29s-.17-.99-.52-1.35c-.38-.39-.9-.58-1.55-.58h-1.96v3.78h1.96Z"/>
  <path class="cls-1" d="M106.95,41.17c.52.46,1.14.69,1.86.69.56,0,.99-.14,1.3-.41.39-.35.59-.9.59-1.66,0-.48-.24-.89-.71-1.23-.28-.21-.8-.47-1.56-.78-.88-.36-1.49-.67-1.82-.92-.56-.43-.84-.97-.84-1.61s.2-1.19.6-1.6c.45-.44,1.08-.66,1.89-.66.57,0,1.06.08,1.47.25.39.17.77.44,1.13.82l-.45.77c-.26-.41-.54-.73-.83-.97-.43-.34-.89-.51-1.4-.51-.45,0-.83.12-1.13.36-.38.31-.57.76-.57,1.36,0,.47.23.88.68,1.22.28.2.8.46,1.57.78.87.36,1.47.67,1.81.94.57.45.85,1.01.85,1.68,0,.92-.27,1.59-.82,2.01-.46.36-1.15.53-2.07.53-.76,0-1.41-.17-1.95-.5-.34-.21-.66-.51-.94-.89l.21-1.12c.38.66.75,1.15,1.11,1.47Z"/>
</svg>