<?xml version="1.0" encoding="utf-8"?>
<!-- Generator: Adobe Illustrator 16.0.0, SVG Export Plug-In . SVG Version: 6.00 Build 0)  -->
<!DOCTYPE svg PUBLIC "-//W3C//DTD SVG 1.1//EN" "http://www.w3.org/Graphics/SVG/1.1/DTD/svg11.dtd">
<svg version="1.1" id="Layer_1" xmlns="http://www.w3.org/2000/svg" xmlns:xlink="http://www.w3.org/1999/xlink" x="0px" y="0px"
	 width="16px" height="16px" viewBox="0 0 16 16" enable-background="new 0 0 16 16" xml:space="preserve">
<path fill="#535353" d="M5.692,15.609c-0.232,0-0.449-0.093-0.611-0.26l-4.274-4.353C0.75,10.938,0.701,10.87,0.66,10.79
	c-0.012-0.019-0.046-0.1-0.048-0.104c-0.043-0.123-0.055-0.258-0.036-0.401c0.003-0.02,0.019-0.095,0.025-0.114
	c0.03-0.123,0.091-0.24,0.178-0.34c0.009-0.012,4.393-4.396,4.393-4.396c0.162-0.162,0.376-0.25,0.604-0.25
	c0.229,0,0.443,0.089,0.604,0.25c0.162,0.161,0.25,0.376,0.25,0.604c0,0.228-0.089,0.443-0.25,0.604l-2.9,2.899h7.434
	c0.916,0,2.049-0.29,2.243-1.669L13.15,1.412c0-0.472,0.384-0.855,0.855-0.855s0.855,0.384,0.855,0.855v6.583
	c-0.283,2.061-1.757,3.26-3.946,3.26H3.454l2.848,2.901c0.329,0.334,0.325,0.877-0.01,1.208C6.128,15.522,5.916,15.609,5.692,15.609
	z"/>
</svg>
