<?xml version="1.0" encoding="utf-8"?>
<!-- Generator: Adobe Illustrator 16.0.0, SVG Export Plug-In . SVG Version: 6.00 Build 0)  -->
<!DOCTYPE svg PUBLIC "-//W3C//DTD SVG 1.1//EN" "http://www.w3.org/Graphics/SVG/1.1/DTD/svg11.dtd">
<svg version="1.1" id="Layer_1" xmlns="http://www.w3.org/2000/svg" xmlns:xlink="http://www.w3.org/1999/xlink" x="0px" y="0px"
	 width="16px" height="18px" viewBox="0 0 16 18" enable-background="new 0 0 16 18" xml:space="preserve">
<path fill="#535353" d="M8.095,9.461c-2.356,0-4.273-1.917-4.273-4.273s1.917-4.273,4.273-4.273c2.356,0,4.273,1.917,4.273,4.273
	S10.451,9.461,8.095,9.461z M8.095,2.63c-1.41,0-2.558,1.147-2.558,2.558s1.147,2.558,2.558,2.558c1.41,0,2.557-1.147,2.557-2.558
	S9.505,2.63,8.095,2.63z"/>
<path fill="#535353" d="M14.424,17.446c-0.473,0-0.858-0.386-0.858-0.858c0-1.998-0.338-3.388-0.979-4.018
	c-0.276-0.271-0.638-0.409-1.075-0.409l-6.767,0.001c-0.5,0-0.861,0.134-1.142,0.409c-0.64,0.629-0.979,2.018-0.979,4.017
	c0,0.473-0.385,0.858-0.858,0.858c-0.473,0-0.857-0.386-0.857-0.858c0-2.539,0.488-4.254,1.493-5.241
	c0.615-0.605,1.376-0.901,2.324-0.901h6.719c0.952,0,1.737,0.304,2.344,0.901c1.005,0.987,1.493,2.702,1.493,5.241
	C15.282,17.061,14.897,17.446,14.424,17.446z"/>
</svg>
