<?xml version="1.0" encoding="utf-8"?>
<!-- Generator: Adobe Illustrator 16.0.0, SVG Export Plug-In . SVG Version: 6.00 Build 0)  -->
<!DOCTYPE svg PUBLIC "-//W3C//DTD SVG 1.1//EN" "http://www.w3.org/Graphics/SVG/1.1/DTD/svg11.dtd">
<svg version="1.1" id="Layer_1" xmlns="http://www.w3.org/2000/svg" xmlns:xlink="http://www.w3.org/1999/xlink" x="0px" y="0px"
	 width="20px" height="20px" viewBox="0 0 20 20" enable-background="new 0 0 20 20" xml:space="preserve">
<path fill="#535353" d="M15.203,3.281h-0.562V1.322h-1.699v1.958H7.6V1.322H5.9v1.958H5.172c-1.657,0-3,1.343-3,3v9.958
	c0,1.657,1.343,3,3,3h10.031c1.657,0,3-1.343,3-3V6.281C18.203,4.624,16.86,3.281,15.203,3.281z M5.172,4.981H5.9v1.174H7.6V4.981
	h5.343v1.174h1.699V4.981h0.562c0.717,0,1.3,0.583,1.3,1.3V7.93H3.872V6.281C3.872,5.564,4.455,4.981,5.172,4.981z M15.203,17.539
	H5.172c-0.717,0-1.3-0.584-1.3-1.301V9.63h12.631v6.608C16.503,16.955,15.92,17.539,15.203,17.539z"/>
</svg>
