<?xml version="1.0" encoding="utf-8"?>
<!-- Generator: Adobe Illustrator 25.0.0, SVG Export Plug-In . SVG Version: 6.00 Build 0)  -->
<svg version="1.1" id="Layer_1" xmlns="http://www.w3.org/2000/svg" xmlns:xlink="http://www.w3.org/1999/xlink" x="0px" y="0px"
	 viewBox="0 0 50 50" style="enable-background:new 0 0 50 50;" xml:space="preserve">
<style type="text/css">
	.st0{fill:#222222;stroke:#222222;stroke-width:2;stroke-miterlimit:10;}
</style>
<g>
	<g>
		<path class="st0" d="M36.4,15.6c1.6,5.9,0.2,12.2-3.9,16.7c-3.2,3.5-7.6,5.6-12.3,5.9c-4.8,0.3-9.3-1.4-12.9-4.6
			c-2.5-2.3-4.4-5.2-5.3-8.5C0.3,19.2,1.8,13,5.9,8.4c6.6-7.3,17.9-7.9,25.2-1.3C33.7,9.4,35.5,12.3,36.4,15.6z M5.1,24.3
			c0.7,2.7,2.2,5.1,4.3,7c2.9,2.6,6.7,3.9,10.6,3.7S27.4,33,30,30.1c3.4-3.7,4.6-8.8,3.2-13.7c-0.7-2.7-2.2-5.1-4.3-7
			c-6-5.4-15.3-4.9-20.7,1.1C4.9,14.3,3.7,19.4,5.1,24.3z"/>
	</g>
	<g>
		<path class="st0" d="M45.5,42.7c0.1,0.5,0,1.1-0.4,1.5c-0.6,0.6-1.6,0.7-2.3,0.1L30.1,32.4c-0.6-0.6-0.7-1.6-0.1-2.3
			c0.6-0.6,1.6-0.7,2.3-0.1L45,42C45.2,42.2,45.4,42.4,45.5,42.7z"/>
	</g>
</g>
</svg>
