<svg xmlns="http://www.w3.org/2000/svg" viewBox="0 0 16 48"><defs><style>.cls-1,.cls-4{fill:#fff;}.cls-2{fill:#e8e8e8;}.cls-3{fill:#cecece;}.cls-4{fill-rule:evenodd;}</style></defs><g id="레이어_2" data-name="레이어 2"><g id="레이어_1-2" data-name="레이어 1"><path class="cls-1" d="M14,1a1,1,0,0,1,1,1V14a1,1,0,0,1-1,1H2a1,1,0,0,1-1-1V2A1,1,0,0,1,2,1H14m0-1H2A2,2,0,0,0,0,2V14a2,2,0,0,0,2,2H14a2,2,0,0,0,2-2V2a2,2,0,0,0-2-2Z"/><path class="cls-1" d="M14,17a1,1,0,0,1,1,1V30a1,1,0,0,1-1,1H2a1,1,0,0,1-1-1V18a1,1,0,0,1,1-1H14m0-1H2a2,2,0,0,0-2,2V30a2,2,0,0,0,2,2H14a2,2,0,0,0,2-2V18a2,2,0,0,0-2-2Z"/><rect class="cls-2" x="0.5" y="32.5" width="15" height="15" rx="1.5"/><path class="cls-3" d="M14,33a1,1,0,0,1,1,1V46a1,1,0,0,1-1,1H2a1,1,0,0,1-1-1V34a1,1,0,0,1,1-1H14m0-1H2a2,2,0,0,0-2,2V46a2,2,0,0,0,2,2H14a2,2,0,0,0,2-2V34a2,2,0,0,0-2-2Z"/><polygon class="cls-4" points="12.69 5.92 6.73 11.88 3.31 8.45 5.1 6.66 6.73 8.29 10.9 4.13 12.69 5.92"/></g></g></svg>