<?xml version="1.0" encoding="utf-8"?>
<!-- Generator: Adobe Illustrator 26.0.1, SVG Export Plug-In . SVG Version: 6.00 Build 0)  -->
<svg version="1.1" id="레이어_1" xmlns="http://www.w3.org/2000/svg" xmlns:xlink="http://www.w3.org/1999/xlink" x="0px"
	 y="0px" viewBox="0 0 16 48" style="enable-background:new 0 0 16 48;" xml:space="preserve">
<style type="text/css">
	.st0{fill:#FFFFFF;}
	.st1{fill:#000111;}
	.st2{fill:#C1C1C1;}
	.st3{fill:#E8E8E8;}
	.st4{fill:#CECECE;}
</style>
<circle class="st0" cx="8" cy="24" r="7.4"/>
<g id="레이어_2_00000182488870124359626950000017503382239119236281_">
	<g id="레이어_1-2">
		<path class="st1" d="M8,1c3.9,0,7,3.1,7,7s-3.1,7-7,7s-7-3.1-7-7S4.1,1,8,1 M8,0C3.6,0,0,3.6,0,8s3.6,8,8,8s8-3.6,8-8S12.4,0,8,0z
			"/>
		<path class="st2" d="M8,17c3.9,0,7,3.1,7,7s-3.1,7-7,7s-7-3.1-7-7S4.1,17,8,17 M8,16c-4.4,0-8,3.6-8,8s3.6,8,8,8s8-3.6,8-8
			S12.4,16,8,16z"/>
		<circle class="st3" cx="8" cy="40" r="7.5"/>
		<path class="st4" d="M8,33c3.9,0,7,3.1,7,7s-3.1,7-7,7s-7-3.1-7-7S4.1,33,8,33 M8,32c-4.4,0-8,3.6-8,8s3.6,8,8,8s8-3.6,8-8
			S12.4,32,8,32z"/>
		<circle class="st1" cx="8" cy="8" r="3.9"/>
	</g>
</g>
</svg>
