<?xml version="1.0" standalone="no"?>
<!DOCTYPE svg PUBLIC "-//W3C//DTD SVG 20010904//EN"
 "http://www.w3.org/TR/2001/REC-SVG-20010904/DTD/svg10.dtd">
<svg version="1.0" xmlns="http://www.w3.org/2000/svg"
 width="260.000000pt" height="260.000000pt" viewBox="0 0 260.000000 260.000000"
 preserveAspectRatio="xMidYMid meet">
<metadata>
Created by potrace 1.11, written by Peter Selinger 2001-2013
</metadata>
<g transform="translate(0.000000,260.000000) scale(0.100000,-0.100000)"
fill="#000000" stroke="none">
<path d="M1223 2439 c-121 -36 -204 -158 -190 -281 23 -221 289 -315 448 -158
74 73 95 167 62 269 -42 131 -189 209 -320 170z"/>
<path d="M84 1702 c-20 -3 -20 -5 12 -100 44 -133 152 -465 274 -842 56 -173
120 -370 142 -437 l40 -123 228 0 229 0 122 373 c68 204 123 374 124 377 6 28
50 150 55 150 3 0 16 -35 28 -77 27 -91 46 -150 102 -328 76 -240 102 -319
128 -408 l27 -87 230 2 229 3 78 240 c83 256 99 305 258 795 56 173 113 346
126 384 13 39 21 72 19 74 -4 4 -336 6 -386 3 -12 -1 -37 -66 -99 -253 -45
-139 -113 -348 -151 -463 -38 -116 -69 -216 -69 -223 0 -46 -26 20 -96 241
-43 138 -79 254 -80 257 0 3 -20 66 -43 140 -24 74 -55 172 -69 218 -14 45
-31 82 -36 83 -14 1 -335 1 -363 0 -19 -1 -37 -47 -179 -478 l-157 -478 -23
70 c-27 83 -73 228 -144 455 -29 91 -69 219 -91 285 -21 67 -39 126 -39 133 0
7 -10 12 -22 13 -74 3 -386 4 -404 1z"/>
</g>
</svg>
