<svg width="64" height="64" viewBox="0 0 64 64" fill="none" xmlns="http://www.w3.org/2000/svg">
<g clip-path="url(#clip0_16_127)">
<circle cx="32" cy="32" r="31.5" stroke="#111111"/>
<g clip-path="url(#clip1_16_127)">
<path d="M18.9778 23.4616C18.9778 21.8779 18.9699 20.3128 18.9831 18.7491C18.9871 18.3336 19.007 17.9034 19.1119 17.5039C19.4916 16.0543 20.7633 15.0202 22.2567 15.0135C27.0994 14.9923 31.942 15.0016 36.7847 15.0082C37.5493 15.0082 38.2064 15.3135 38.7441 15.8498C40.5614 17.6605 42.4106 19.4407 44.1629 21.3124C44.67 21.854 44.8916 22.6625 45.2448 23.3475C45.1903 23.3899 45.1372 23.4311 45.0828 23.4736C45.2328 23.4815 45.3828 23.4908 45.5315 23.4975C46.632 23.5492 47.2745 24.2063 47.2811 25.3214C47.2917 27.002 47.2931 28.6826 47.2785 30.3632C47.2758 30.7296 47.3515 30.946 47.7258 31.1199C48.5568 31.5088 48.9869 32.219 48.9883 33.139C48.9976 37.3179 49.0108 41.4982 48.9816 45.6771C48.9684 47.5727 47.4417 48.9838 45.4718 48.9865C38.4626 48.9931 31.4522 48.9891 24.4418 48.9891C22.5182 48.9891 20.5947 48.9918 18.6699 48.9891C16.433 48.9852 15.0073 47.5754 15.006 45.3572C15.0033 40.0499 15.0126 34.7426 15.0007 29.4353C14.998 28.3561 15.4029 27.5689 16.3853 27.0711C16.5459 26.9901 16.672 26.7219 16.7012 26.5228C16.7516 26.1763 16.7145 25.8179 16.7158 25.4635C16.7238 24.1665 17.3132 23.5506 18.5915 23.4961C18.6977 23.4922 18.8039 23.4776 18.9792 23.4616H18.9778ZM31.9912 47.8462C36.3931 47.8462 40.795 47.8488 45.197 47.8462C47.005 47.8462 47.848 47.0125 47.8493 45.2204C47.8533 41.3269 47.8519 37.4347 47.8493 33.5412C47.8493 32.3412 47.5055 31.9987 46.316 31.9987C41.2066 31.9987 36.0971 31.9907 30.9876 32.0053C29.903 32.008 29.1251 31.5752 28.6154 30.6207C28.3034 30.0367 27.9357 29.4804 27.6357 28.891C27.3171 28.2645 26.8458 28.0136 26.1436 28.0189C23.3346 28.0401 20.5257 28.0268 17.7154 28.0282C16.4861 28.0282 16.149 28.3667 16.149 29.6105C16.1476 34.7864 16.1476 39.9623 16.149 45.1381C16.149 47.0285 16.9654 47.8462 18.8504 47.8475C23.2298 47.8502 27.6105 47.8475 31.9898 47.8475L31.9912 47.8462ZM37.0847 16.199C36.8059 16.1777 36.5909 16.1472 36.3772 16.1472C31.7788 16.1445 27.1804 16.1392 22.5819 16.1485C21.0022 16.1525 20.1128 17.0419 20.1035 18.6203C20.0903 21.1624 20.1142 23.7046 20.0876 26.2467C20.0823 26.779 20.2469 26.921 20.7633 26.9131C22.5753 26.8852 24.3887 26.9224 26.202 26.8945C27.3171 26.8772 28.103 27.3326 28.614 28.3176C28.8888 28.8459 29.2366 29.3384 29.4888 29.876C29.8353 30.6128 30.3703 30.8716 31.1787 30.8663C35.1572 30.8371 39.137 30.8531 43.1168 30.8531C43.3518 30.8531 43.5881 30.8531 43.8283 30.8531V22.9466C42.8566 22.9466 41.9499 22.9067 41.0486 22.9532C37.6157 23.1311 36.9214 22.2297 37.0767 19.0159C37.1206 18.0959 37.0834 17.1707 37.0834 16.1976L37.0847 16.199ZM38.2516 17.1694C38.2516 18.3667 38.1945 19.6159 38.2914 20.8544C38.3166 21.177 38.8051 21.6974 39.1131 21.7213C40.3689 21.8209 41.638 21.7624 42.8487 21.7624C41.3128 20.2279 39.7848 18.7013 38.2516 17.1694ZM46.1076 30.8146C46.1302 30.6513 46.1634 30.5238 46.1634 30.3964C46.1674 28.7636 46.1727 27.1308 46.1634 25.498C46.1581 24.7108 45.8873 24.5356 45.0682 24.7493V30.8146H46.1063H46.1076ZM18.946 24.728C18.1588 24.5807 17.8866 24.7015 17.8455 25.2604C17.807 25.7781 17.8375 26.3011 17.8375 26.856H18.946V24.728Z" fill="#444444"/>
<path d="M25.229 44.4622C27.1976 44.4622 29.1663 44.4648 31.135 44.4595C31.5637 44.4595 31.9925 44.494 31.9792 45.0436C31.9686 45.5481 31.5545 45.5852 31.1549 45.5852C27.195 45.5839 23.2351 45.5852 19.2752 45.5852C18.8597 45.5852 18.415 45.5746 18.4376 45.0011C18.4601 44.4343 18.9141 44.4622 19.3217 44.4635C21.2903 44.4635 23.259 44.4635 25.2277 44.4635L25.229 44.4622Z" fill="#444444"/>
<path d="M23.2404 42.1988C24.5652 42.1988 25.8901 42.2015 27.2149 42.1975C27.6211 42.1962 28.0114 42.2453 28.0114 42.7577C28.0114 43.2728 27.6145 43.3166 27.2122 43.3166C24.5413 43.3152 21.8691 43.3139 19.1982 43.3166C18.7827 43.3166 18.415 43.2396 18.4376 42.7232C18.4588 42.2493 18.8186 42.1975 19.2009 42.1975C20.5483 42.2015 21.8943 42.1988 23.2417 42.1988H23.2404Z" fill="#444444"/>
<path d="M27.7034 41.0492C26.5777 41.0492 25.4507 41.0453 24.325 41.0519C23.9161 41.0545 23.5245 40.9961 23.5232 40.493C23.5232 39.9899 23.9148 39.9315 24.3236 39.9328C26.6202 39.9368 28.9167 39.9368 31.2133 39.9328C31.6328 39.9328 32.0031 40.0231 31.9819 40.5236C31.9633 40.9789 31.6036 41.0532 31.2146 41.0519C30.0438 41.0453 28.8743 41.0492 27.7034 41.0492Z" fill="#444444"/>
<path d="M20.4168 41.0453C19.9535 41.0453 19.4796 41.105 19.0323 41.02C18.8053 40.9775 18.6287 40.6722 18.4296 40.4864C18.6327 40.3032 18.8252 39.9766 19.0389 39.962C19.9389 39.9023 20.8483 39.9023 21.7483 39.962C21.9594 39.9766 22.1492 40.3085 22.3483 40.4957C22.1452 40.6789 21.9647 40.9749 21.735 41.0214C21.3116 41.1063 20.8576 41.0453 20.4168 41.0453Z" fill="#444444"/>
<path d="M24.0064 22.3636C21.9036 22.3662 21.7921 22.256 21.7921 20.1692C21.7921 17.8966 21.8665 17.8209 24.1298 17.8209C26.2299 17.8209 26.3281 17.9191 26.3281 20.0285C26.3281 20.4042 26.3374 20.7799 26.3242 21.1542C26.2963 21.9295 25.9113 22.3211 25.1321 22.3596C24.7577 22.3782 24.3821 22.3622 24.0064 22.3622V22.3636ZM25.16 21.2153V19.0183H23.0028V21.2153H25.16Z" fill="#444444"/>
<path d="M30.6053 21.7927C29.8114 21.7927 29.0176 21.7901 28.2251 21.7941C27.8322 21.7967 27.4937 21.7025 27.4923 21.2378C27.4897 20.7706 27.8295 20.6763 28.2211 20.6763C29.8088 20.679 31.3951 20.679 32.9828 20.6763C33.3917 20.6763 33.7474 20.8343 33.6638 21.2591C33.6213 21.4728 33.235 21.7463 32.9841 21.7675C32.1956 21.8326 31.3991 21.7914 30.6053 21.7914V21.7927Z" fill="#444444"/>
<path d="M33.3744 19.5281C32.7585 19.5281 32.1412 19.5281 31.5252 19.5281C31.131 19.5281 30.8296 19.3316 30.9119 18.9466C30.9571 18.7342 31.2982 18.4435 31.5146 18.4342C32.7678 18.3851 34.0236 18.3811 35.2767 18.4342C35.5117 18.4435 35.7347 18.7794 35.963 18.9652C35.7387 19.1524 35.5303 19.4723 35.286 19.5028C34.6568 19.5798 34.0129 19.5281 33.3744 19.5281Z" fill="#444444"/>
<path d="M28.5092 19.5294C28.1308 19.4949 27.5149 19.682 27.5016 18.9825C27.4883 18.2789 28.1003 18.4342 28.5397 18.409C28.7149 18.3984 28.93 18.3466 29.0614 18.4236C29.3083 18.5709 29.5088 18.7979 29.7278 18.9904C29.4942 19.1696 29.2751 19.3741 29.0216 19.5161C28.9048 19.5825 28.7189 19.5267 28.5078 19.5267L28.5092 19.5294Z" fill="#444444"/>
</g>
</g>
<defs>
<clipPath id="clip0_16_127">
<rect width="64" height="64" fill="white"/>
</clipPath>
<clipPath id="clip1_16_127">
<rect width="33.9995" height="33.9916" fill="white" transform="translate(15.0007 15)"/>
</clipPath>
</defs>
</svg>
