<svg width="50" height="64" viewBox="0 0 50 64" fill="none" xmlns="http://www.w3.org/2000/svg">
<g clip-path="url(#clip0_13_44)">
<path d="M36.1386 5.69936C35.8177 5.52642 35.512 5.32592 35.1811 5.12792C35.1811 3.83217 35.1761 2.58403 35.1811 1.33589C35.1862 0.488766 34.8553 -0.00497479 33.9355 3.78018e-05C31.938 0.0125693 29.9405 0.00755669 27.943 0.0025441C27.1735 0.0025441 26.7876 0.39102 26.7625 1.14291C26.745 1.67675 26.76 2.20809 26.76 2.72188C24.77 2.84469 22.968 2.81712 21.211 3.0878C7.34871 5.20812 -1.88198 18.4213 0.326069 32.4441C1.07796 37.2236 3.22836 41.3339 6.21837 45.0708C11.5417 51.7225 17.5719 57.695 23.8026 63.477C24.6071 64.2239 24.9179 64.1913 25.8978 63.2465C29.6397 59.6299 33.3691 55.9982 37.0935 52.3666C37.3892 52.0784 37.725 51.7651 37.8554 51.3992C37.9581 51.111 37.8854 50.5696 37.6824 50.4167C37.4193 50.2187 36.923 50.1912 36.5746 50.2814C36.2939 50.3541 36.0834 50.7074 35.8478 50.9405C32.4568 54.2614 29.0683 57.5822 25.6748 60.9006C25.384 61.1838 25.0657 61.4394 24.76 61.7051C24.5996 61.6048 24.4818 61.5572 24.394 61.477C18.6646 56.0784 13.1032 50.522 8.09058 44.4292C4.29354 39.8126 1.99276 34.6822 1.89752 28.6069C1.70704 16.5216 10.3337 6.38107 22.2737 4.85724C23.7249 4.67178 25.2186 4.83218 26.6698 4.83218V6.93246C26.1033 6.93246 25.6121 6.92243 25.1234 6.93246C23.9379 6.96504 23.7399 7.15802 23.7123 8.31593C23.6998 8.88988 23.7123 9.46382 23.7123 10.0954C23.2411 10.1581 22.8677 10.1606 22.5193 10.2633C20.6572 10.8147 18.7925 11.3686 16.9453 11.9726C16.4215 12.143 16.1533 12.5867 16.404 13.1731C16.6746 13.8047 17.1584 13.8874 17.7423 13.6468C18.0105 13.5366 18.2661 13.3962 18.5343 13.2809C20.1459 12.5942 21.8151 12.1531 23.6321 12.0603V25.4039H21.1985C21.1985 22.8575 21.1935 20.4038 21.2035 17.9476C21.206 17.2684 21.1058 16.6093 20.2912 16.5792C19.384 16.5466 19.2737 17.2509 19.2762 17.9727C19.2812 19.2233 19.2762 20.4715 19.2762 21.7221C19.2762 22.9552 19.2762 24.1883 19.2762 25.4114H17.3138C17.3138 24.0404 17.3689 22.7522 17.2737 21.474C17.2486 21.1532 16.7774 20.6845 16.4416 20.6118C15.9027 20.4965 15.5142 20.885 15.4791 21.489C15.4616 21.7798 15.4691 22.073 15.4691 22.3637C15.4691 23.3863 15.4691 24.4089 15.4691 25.3888C15.211 25.449 15.1333 25.4841 15.0531 25.4866C14.3037 25.4941 13.5543 25.4941 12.8049 25.5016C11.4139 25.5141 11.2285 25.6921 11.2235 27.0981C11.2159 29.9729 11.2235 32.8451 11.2184 35.7198C11.2184 36.0606 11.1834 36.399 11.1633 36.7399C10.8049 36.4291 10.6144 36.1158 10.454 35.7875C7.35623 29.4866 8.56427 21.8424 13.4541 16.8073C13.6871 16.5692 13.9303 16.3436 14.1633 16.1055C14.5669 15.692 14.6671 15.2233 14.2636 14.7747C13.815 14.2784 13.3112 14.3561 12.84 14.7797C12.6545 14.9476 12.4716 15.118 12.2987 15.296C7.75474 20.0178 6.10058 25.6395 7.24094 32.0506C9.20087 43.0708 20.7825 49.5821 31.1159 45.5294C42.1662 41.1961 46.0886 27.0355 38.9256 17.3511C38.6599 16.9902 38.2639 16.5892 38.2514 16.1982C38.1862 13.9726 38.2188 11.7445 38.2188 9.30341C38.7251 9.6944 39.0534 9.92999 39.3591 10.1906C47.9758 17.5466 50.1162 30.5593 44.2088 40.389C42.7802 42.7675 40.9632 44.9129 39.3065 47.151C38.9155 47.6798 38.6925 48.1836 39.2689 48.6799C39.8654 49.1936 40.3592 48.8728 40.7476 48.3616C42.2564 46.3741 43.8354 44.4342 45.2314 42.369C47.5297 38.968 48.8004 35.1784 49.2741 31.0882C50.4696 20.7823 45.2489 10.6468 36.1335 5.70186L36.1386 5.69936ZM23.6221 44.8177C22.8176 44.7049 22.0532 44.6497 21.3113 44.4843C18.3564 43.8252 15.805 42.3991 13.6721 40.2562C13.3814 39.9655 13.1207 39.4893 13.1157 39.0958C13.0756 35.4341 13.0931 31.7699 13.1007 28.1057C13.1007 27.9077 13.1759 27.7122 13.226 27.4691H23.6196V44.8177H23.6221ZM28.7826 1.98753H33.1962V6.83722H28.7826V1.98753ZM35.5972 40.4767C33.1861 42.7249 30.3766 44.146 27.1309 44.6948C26.6898 44.77 26.2337 44.7575 25.6497 44.7951V8.86231H36.2789C36.304 9.27334 36.3516 9.70943 36.3516 10.1455C36.3566 19.6369 36.3466 29.1282 36.3691 38.6196C36.3691 39.3915 36.1661 39.9479 35.5972 40.4767ZM38.2489 20.1757C41.284 23.8525 41.6123 32.0832 38.2489 36.8902V20.1757Z" fill="#111111"/>
<path d="M32.7225 13.8122C31.5595 13.7847 30.3866 13.732 29.2337 13.8448C28.8753 13.8799 28.3565 14.3636 28.2763 14.7245C28.1359 15.3611 28.6522 15.6819 29.2713 15.7095C29.8527 15.7346 30.4342 15.7145 31.0182 15.7145C31.0182 15.712 31.0182 15.7095 31.0182 15.7045C31.5996 15.7045 32.1836 15.7346 32.7626 15.6945C33.329 15.6569 33.7049 15.3361 33.6924 14.7321C33.6799 14.128 33.2889 13.8223 32.7225 13.8097V13.8122Z" fill="#111111"/>
<path d="M29.2563 22.9552C29.7525 23.1031 30.3264 22.9903 30.8653 22.9903C30.8653 22.9853 30.8653 22.9803 30.8653 22.9778C31.5295 22.9778 32.2162 23.078 32.8503 22.9377C33.1836 22.8625 33.6373 22.3662 33.6398 22.053C33.6423 21.7447 33.1711 21.1883 32.8703 21.1632C31.6322 21.0605 30.3816 21.0905 29.1359 21.1256C28.5595 21.1407 28.1109 21.5367 28.2738 22.0906C28.3816 22.4565 28.8628 22.8399 29.2563 22.9577V22.9552Z" fill="#111111"/>
<path d="M29.2212 30.2611C29.8026 30.2686 30.3816 30.2611 30.963 30.2611C31.5445 30.2611 32.1235 30.2661 32.7049 30.2611C33.2914 30.2536 33.6648 29.9628 33.6924 29.3713C33.72 28.7723 33.3641 28.439 32.7751 28.4315C31.5721 28.4139 30.3691 28.4139 29.1685 28.4315C28.5821 28.439 28.2186 28.7648 28.2437 29.3663C28.2663 29.9553 28.6347 30.2561 29.2237 30.2636L29.2212 30.2611Z" fill="#111111"/>
<path d="M32.7099 35.7123C31.5495 35.7098 30.3891 35.7123 29.2262 35.7123C28.6372 35.7123 28.2562 35.998 28.2412 36.5945C28.2262 37.2662 28.6472 37.5444 29.2838 37.5444C29.8653 37.5444 30.4442 37.5444 31.0257 37.5444C31.5646 37.5444 32.1034 37.5444 32.6423 37.5444C33.2789 37.5444 33.7024 37.2687 33.6899 36.597C33.6774 36.0005 33.2964 35.7148 32.7074 35.7123H32.7099Z" fill="#111111"/>
<path d="M16.3213 34.0155C17.409 33.8626 17.1784 32.9779 17.1959 32.2561C17.1959 31.8826 17.3137 31.4465 17.1659 31.1483C16.9904 30.7949 16.5819 30.3388 16.2711 30.3363C15.9628 30.3363 15.5543 30.7899 15.3714 31.1408C15.216 31.439 15.3062 31.8726 15.3062 32.2486C15.3062 33.5769 15.5994 34.1158 16.3238 34.0155H16.3213Z" fill="#111111"/>
<path d="M17.1884 38.0933C16.9729 37.7023 16.6721 37.1659 16.3162 37.0857C15.6897 36.9454 15.3463 37.4742 15.3237 38.0832C15.2987 38.7449 15.2611 39.4291 15.4065 40.0632C15.4741 40.3539 15.9654 40.7349 16.2636 40.7349C16.5669 40.7349 16.9729 40.369 17.1383 40.0582C17.2987 39.7599 17.211 39.3289 17.2335 38.9554C17.226 38.9554 17.2185 38.9554 17.211 38.9554C17.211 38.6647 17.3112 38.3188 17.1884 38.0933Z" fill="#111111"/>
<path d="M19.4642 32.1934C19.4642 32.4842 19.4516 32.7749 19.4642 33.0656C19.4917 33.6446 19.7774 34.0155 20.3815 34.023C20.998 34.028 21.2762 33.6396 21.2913 33.0681C21.3063 32.4065 21.3639 31.7247 21.2336 31.0856C21.1709 30.7774 20.6872 30.3087 20.4491 30.3388C20.1008 30.3839 19.6947 30.7548 19.5093 31.0932C19.3539 31.3814 19.4767 31.8225 19.4767 32.1959C19.4717 32.1959 19.4642 32.1959 19.4591 32.1959L19.4642 32.1934Z" fill="#111111"/>
<path d="M20.399 40.7274C20.6973 40.7274 21.0732 40.2662 21.2587 39.9229C21.3965 39.6672 21.2862 39.2737 21.2862 38.9429C21.2862 38.9429 21.2887 38.9429 21.2913 38.9429C21.2913 38.6121 21.399 38.2261 21.2637 37.9629C21.0832 37.607 20.7148 37.3464 20.4291 37.0431C20.1083 37.3564 19.5995 37.6221 19.5118 37.9905C19.3614 38.6171 19.3739 39.3289 19.5193 39.9605C19.5945 40.2863 20.0958 40.7299 20.4015 40.7274H20.399Z" fill="#111111"/>
</g>
<defs>
<clipPath id="clip0_13_44">
<rect width="50" height="64" fill="white"/>
</clipPath>
</defs>
</svg>
