<svg width="64" height="64" viewBox="0 0 64 64" fill="none" xmlns="http://www.w3.org/2000/svg">
<g clip-path="url(#clip0_16_118)">
<circle cx="32" cy="32" r="31.5" stroke="#111111"/>
<g clip-path="url(#clip1_16_118)">
<path d="M27.6401 45.0846C27.9283 44.2118 28.1971 43.4005 28.4951 42.4985C28.1064 42.4985 27.8166 42.4985 27.5251 42.4985C23.5318 42.4985 19.5385 42.5001 15.5451 42.4985C13.2295 42.4985 11.9178 41.1998 11.9178 38.9068C11.9162 32.2124 11.9162 25.5212 11.9194 18.83C11.9194 16.6261 13.244 15.2901 15.435 15.2901C26.4709 15.2869 37.5068 15.2869 48.5427 15.2885C50.745 15.2885 52.0793 16.6148 52.0809 18.8057C52.0858 25.5244 52.0858 32.2431 52.0809 38.9618C52.0809 41.1577 50.7482 42.4888 48.5572 42.4952C46.5347 42.5017 44.5121 42.4952 42.428 42.4952V45.1704C43.8676 46.0886 43.6927 46.7347 43.6198 48.3686C43.6101 48.5775 43.236 48.8156 42.9834 48.95C42.815 49.039 42.5608 48.971 42.3454 48.971C35.4372 48.971 28.5307 48.971 21.6226 48.971C20.4016 48.971 20.34 48.9079 20.3384 47.6901C20.3384 47.5007 20.3352 47.3128 20.3384 47.1233C20.3724 45.891 21.1432 45.0992 22.3723 45.0862C24.0985 45.0684 25.8248 45.0813 27.6401 45.0813V45.0846ZM50.7806 36.6332C50.7806 36.3126 50.7806 36.0729 50.7806 35.8332C50.7806 30.193 50.7806 24.5544 50.7806 18.9142C50.7806 17.3078 50.0632 16.5905 48.4617 16.5905C37.4792 16.5905 26.4968 16.5888 15.5144 16.5905C13.9598 16.5905 13.2197 17.3208 13.2181 18.8559C13.2149 24.5496 13.2165 30.2432 13.2181 35.9369C13.2181 36.1684 13.2473 36.4 13.2618 36.5927H27.7C27.6206 36.4745 27.598 36.4227 27.5591 36.3887C26.5648 35.5239 26.5956 34.1248 27.4781 33.3168C28.3542 32.5119 29.4958 32.6172 30.4901 33.5953C30.7395 33.8414 30.984 34.0924 31.235 34.3386C31.4504 34.5491 31.669 34.7531 31.9313 35.0041V26.9543C29.5736 26.9543 27.2806 26.9657 24.9876 26.9495C23.7488 26.9414 22.9601 26.156 22.9326 24.935C22.9148 24.1253 22.9148 23.3156 22.9326 22.506C22.9585 21.2753 23.7374 20.4802 24.9714 20.4769C29.6659 20.4656 34.362 20.464 39.0565 20.4769C40.2759 20.4802 41.0434 21.2931 41.0677 22.5351C41.0807 23.2363 41.0726 23.9375 41.0694 24.6403C41.0629 26.2305 40.3406 26.9478 38.7375 26.9527C37.8015 26.9559 36.8655 26.9527 35.9231 26.9527V28.2951C36.8526 28.1073 37.5894 28.4117 38.1594 29.0611C39.6897 28.721 40.2192 28.9396 41.0159 30.2027C41.3446 30.2027 41.6701 30.1687 41.9843 30.2092C42.9753 30.3339 43.6474 31.1582 43.6571 32.2658C43.67 33.7119 43.6603 35.158 43.6603 36.6332H50.7806ZM39.769 35.3442C39.769 33.9629 39.769 32.6706 39.769 31.3784C39.769 30.525 39.5876 30.2011 39.1213 30.2011C38.6614 30.2011 38.48 30.5331 38.48 31.3816C38.48 32.4795 38.48 33.5758 38.48 34.6641H37.2104C37.1975 34.5005 37.1829 34.3952 37.1813 34.29C37.1781 32.967 37.1797 31.6456 37.178 30.3226C37.178 29.8853 36.9934 29.5615 36.5303 29.5647C36.0672 29.568 35.8907 29.8951 35.8907 30.3307C35.8907 30.925 35.8907 31.5177 35.8907 32.112C35.8907 33.1823 35.8907 34.2527 35.8907 35.3118H34.5903V34.4503C34.5903 31.9678 34.5903 29.4854 34.5903 27.0029C34.5903 26.8134 34.5903 26.6256 34.5903 26.4361C34.5887 25.9989 34.4041 25.675 33.941 25.6783C33.4778 25.6815 33.3029 26.0102 33.3029 26.4458C33.3029 27.8757 33.3029 29.3056 33.3029 30.7371C33.3029 32.6528 33.3191 34.5685 33.2819 36.4842C33.277 36.7498 33.0649 37.119 32.8414 37.2372C32.6746 37.3263 32.3006 37.1384 32.0803 36.9846C31.7969 36.787 31.5751 36.502 31.3257 36.2543C30.7719 35.7004 30.2213 35.145 29.6643 34.5944C29.0894 34.026 28.7186 33.9402 28.3558 34.2835C27.9818 34.6365 28.0579 35.0235 28.6101 35.5903C28.704 35.6875 28.7995 35.7814 28.8951 35.8769C29.925 36.9069 30.9711 37.9222 31.9799 38.9731C32.6244 39.6436 33.2123 40.369 33.9005 41.156H40.2321C40.4815 40.5164 40.6159 39.8994 40.9349 39.3974C42.1365 37.5028 42.6061 35.4608 42.3681 33.239C42.3276 32.865 42.4345 32.4601 42.3276 32.1152C42.2515 31.8691 41.9308 31.5403 41.7171 31.5387C41.505 31.5387 41.1924 31.8674 41.1066 32.1152C40.9981 32.4293 41.0742 32.8083 41.0726 33.1581C41.0726 33.877 41.0726 34.5977 41.0726 35.3409H39.7723L39.769 35.3442ZM35.8097 25.6507C36.8801 25.6507 37.9051 25.6459 38.9286 25.6524C39.4986 25.6556 39.7739 25.3884 39.769 24.8168C39.7625 24.1431 39.7739 23.4679 39.7674 22.7942C39.7593 21.9198 39.6119 21.774 38.7148 21.7708C36.8542 21.7659 34.9935 21.7708 33.1329 21.7708C30.4901 21.7708 27.8473 21.7675 25.2046 21.774C24.4111 21.7756 24.2427 21.944 24.2313 22.71C24.22 23.4371 24.2265 24.1658 24.2313 24.8945C24.2346 25.3852 24.4888 25.6475 24.9811 25.6491C27.3518 25.6524 29.7226 25.6507 32.0722 25.6507C32.9289 23.9358 34.9612 23.9488 35.8097 25.6507ZM13.2537 37.9643C13.2392 38.1699 13.2311 38.2979 13.2197 38.4258C13.0351 40.5488 14.1314 41.2451 15.8981 41.2208C21.0185 41.1528 26.1422 41.1965 31.2642 41.1965H32.2795C32.0123 40.8824 31.8747 40.6994 31.7144 40.5358C31.0326 39.846 30.3217 39.182 29.6675 38.4663C29.3064 38.0712 28.9177 37.9497 28.3963 37.9513C23.6241 37.9675 18.8535 37.9611 14.0812 37.9611H13.2554L13.2537 37.9643ZM21.6728 47.6237H42.3276C42.3778 46.5177 42.2596 46.3865 41.228 46.3865C35.0761 46.3849 28.9242 46.3849 22.7723 46.3865C21.7391 46.3865 21.6226 46.5177 21.6711 47.6237H21.6728ZM41.526 41.1917C44.1898 41.1917 46.5832 41.2127 48.9766 41.1803C49.8479 41.169 50.5944 40.5018 50.7272 39.6533C50.8114 39.114 50.7434 38.5521 50.7434 37.9951H43.0595C42.5705 39.0153 42.0895 40.0192 41.5276 41.1917H41.526ZM33.3353 45.0279H40.9997V42.5406H33.3353V45.0279ZM31.9621 42.5228H29.8748C29.5995 43.3519 29.3258 44.1777 29.0424 45.0328H31.9637V42.5228H31.9621Z" fill="#444444"/>
</g>
</g>
<defs>
<clipPath id="clip0_16_118">
<rect width="64" height="64" fill="white"/>
</clipPath>
<clipPath id="clip1_16_118">
<rect width="40.168" height="33.7133" fill="white" transform="translate(11.916 15.2867)"/>
</clipPath>
</defs>
</svg>
