<svg width="64" height="64" viewBox="0 0 64 64" fill="none" xmlns="http://www.w3.org/2000/svg">
<g clip-path="url(#clip0_15_78)">
<circle cx="32" cy="32" r="31.5" stroke="#111111"/>
<g clip-path="url(#clip1_15_78)">
<path d="M25.7208 40.0361C25.8664 39.9029 26.0093 39.7531 26.1702 39.6269C26.7513 39.1748 27.5404 39.2109 28.0702 39.7074C28.6083 40.2108 28.7013 40.9764 28.2672 41.5922C28.0286 41.9292 27.7401 42.2315 27.4378 42.5921C27.9024 44.0955 27.7568 45.5698 26.9455 46.9567C26.3186 48.0301 25.4115 48.7902 24.2507 49.2367C21.9277 50.1313 19.2967 49.2908 17.9015 47.2174C16.5298 45.1773 16.742 42.4257 18.4105 40.631C20.3036 38.5951 22.7945 38.387 25.7208 40.0361ZM26.5557 43.6059C26.3158 43.8639 26.1424 44.04 25.9802 44.2259C25.3228 44.9693 24.6779 45.7237 24.0108 46.4574C23.2563 47.2868 22.3631 47.2937 21.6295 46.4727C21.0303 45.8014 20.4437 45.119 19.8737 44.4214C19.3078 43.7294 19.3633 42.8404 19.9749 42.312C20.6004 41.7711 21.4547 41.8446 22.0733 42.5034C22.3215 42.7683 22.5545 43.0484 22.8347 43.3674C23.5739 42.5297 24.2798 41.7281 24.983 40.9306C23.8554 39.8155 21.4242 39.4813 19.6906 40.8627C18.0624 42.1608 17.5714 44.384 18.5298 46.2189C19.4936 48.0634 21.599 48.9483 23.5781 48.363C25.5849 47.7694 26.926 45.6891 26.5557 43.6073V43.6059ZM27.4655 40.8474C27.4544 40.4452 27.1466 40.2621 26.8733 40.4327C26.7027 40.5395 26.5696 40.7101 26.4337 40.864C25.4421 41.986 24.4546 43.115 23.4629 44.237C22.9124 44.8597 22.7168 44.8514 22.1607 44.2079C21.8888 43.8944 21.617 43.581 21.3493 43.2634C21.1454 43.0221 20.9083 42.8945 20.6434 43.1441C20.3951 43.3771 20.5477 43.6046 20.7224 43.8084C21.2619 44.4381 21.7945 45.0747 22.3451 45.696C22.7223 46.1218 22.9151 46.1218 23.2924 45.696C24.6071 44.2134 25.9164 42.7239 27.2214 41.2316C27.3379 41.0984 27.4128 40.932 27.4655 40.846V40.8474Z" fill="#444444"/>
<path d="M22.8333 18.5571C23.5905 17.6972 24.2867 16.9067 24.9788 16.1203C23.983 15.0524 21.5837 14.6766 19.8681 15.9123C19.7003 16.0343 19.5477 16.1869 19.3646 16.2771C19.1136 16.4005 18.821 16.3797 18.7086 16.1051C18.6379 15.9317 18.685 15.6668 18.7683 15.4837C18.8376 15.3326 19.029 15.2313 19.1774 15.1218C20.9193 13.8361 23.2493 13.7335 25.1092 14.861C25.3047 14.9789 25.4961 15.1037 25.7055 15.2369C25.8525 15.101 25.9801 14.9706 26.1202 14.8541C26.7249 14.3548 27.5196 14.3728 28.073 14.8943C28.6277 15.4186 28.6985 16.2008 28.2241 16.8401C27.9911 17.1536 27.7207 17.4393 27.4419 17.7666C27.7429 18.84 27.7928 19.9246 27.4475 21.0189C26.5723 23.7788 23.6807 25.3612 20.9027 24.5846C18.1053 23.7996 16.4383 20.8926 17.1733 18.0717C17.2135 17.9164 17.2621 17.7596 17.3245 17.6126C17.4368 17.345 17.6476 17.216 17.9333 17.2826C18.2301 17.3519 18.3342 17.578 18.2967 17.8623C18.2759 18.0204 18.2177 18.1743 18.1788 18.331C17.6005 20.7054 19.0124 23.0659 21.3423 23.6193C23.6321 24.163 25.9385 22.7677 26.503 20.4585C26.625 19.9593 26.6056 19.4267 26.6514 18.9094C26.5765 18.8636 26.503 18.8178 26.4281 18.7721C26.3171 18.9385 26.2242 19.1202 26.0939 19.27C25.4129 20.0563 24.7305 20.8399 24.0343 21.6124C23.2368 22.4973 22.3534 22.482 21.5587 21.5778C20.9956 20.9356 20.4353 20.2893 19.8903 19.6306C19.3147 18.9357 19.3494 18.0578 19.9499 17.5169C20.5865 16.9428 21.4575 17.0204 22.0982 17.7153C22.3312 17.9691 22.5517 18.2354 22.8291 18.5571H22.8333ZM20.9374 18.1452C20.7973 18.2548 20.6059 18.331 20.5795 18.4448C20.5449 18.5959 20.592 18.8151 20.6905 18.9371C21.1967 19.564 21.7265 20.1728 22.2563 20.7803C22.7514 21.3476 22.8915 21.3448 23.3908 20.7789C24.639 19.3615 25.8858 17.9427 27.1326 16.5211C27.238 16.4005 27.3837 16.2784 27.4114 16.137C27.4419 15.983 27.4114 15.7375 27.3088 15.6571C27.2034 15.5739 26.9537 15.5905 26.8137 15.6571C26.6597 15.732 26.5543 15.9109 26.4323 16.0496C25.4573 17.1563 24.4851 18.2645 23.5101 19.3698C22.8984 20.0633 22.7376 20.0577 22.119 19.3393C21.8638 19.0425 21.6142 18.7388 21.3493 18.4531C21.2453 18.3408 21.1024 18.2659 20.9374 18.1452Z" fill="#444444"/>
<path d="M25.7056 27.6483C25.8345 27.5276 25.9608 27.3959 26.0994 27.2794C26.6903 26.7773 27.5044 26.7787 28.0564 27.2794C28.6167 27.787 28.7068 28.5831 28.245 29.2224C28.0037 29.5567 27.7138 29.8562 27.4614 30.1544C28.0813 33.2527 26.9316 35.7228 24.4019 36.7768C22.083 37.7421 19.3952 36.9516 17.9514 34.881C16.5035 32.802 16.7337 29.9658 18.4937 28.1309C20.0928 26.4639 23.0094 25.7066 25.7056 27.6511V27.6483ZM22.9706 33.7853C23.18 33.5024 23.3478 33.2541 23.5365 33.0239C23.7556 32.7562 24.0413 32.6661 24.3256 32.8921C24.6182 33.1265 24.5614 33.4164 24.3367 33.6827C24.2022 33.8422 24.0704 34.0031 23.9248 34.1515C23.241 34.8449 22.334 34.838 21.6752 34.1085C21.0567 33.4219 20.4562 32.7188 19.8709 32.0031C19.3009 31.3055 19.3633 30.436 19.9888 29.8992C20.6115 29.3639 21.4714 29.4485 22.0871 30.1114C22.3312 30.3749 22.5628 30.6509 22.8375 30.9616C23.5919 30.1017 24.2868 29.3112 24.9816 28.522C23.5073 27.1989 21.1579 27.2253 19.5921 28.5345C17.9597 29.8992 17.5659 32.2334 18.6629 34.0502C19.778 35.8976 22.0747 36.6354 24.0371 35.7935C26.1244 34.8976 26.9704 32.5579 26.5058 31.257C26.3075 31.465 26.13 31.6731 25.9289 31.8534C25.7139 32.0475 25.4615 32.0586 25.2396 31.8672C25.0135 31.6717 25.0093 31.4234 25.1688 31.1821C25.2576 31.0476 25.3727 30.9311 25.4795 30.8104C26.0273 30.1849 26.5807 29.5622 27.1244 28.9339C27.3449 28.6788 27.6999 28.3861 27.313 28.063C26.9219 27.7357 26.7014 28.1656 26.485 28.4083C25.4407 29.5816 24.4116 30.7702 23.3659 31.9421C22.9484 32.4095 22.7071 32.4012 22.2896 31.9393C21.979 31.5968 21.6863 31.239 21.384 30.8895C21.194 30.6689 20.9832 30.4568 20.685 30.7008C20.3882 30.9436 20.538 31.1918 20.7321 31.4179C21.2883 32.0669 21.8403 32.7202 22.4047 33.3623C22.506 33.4774 22.653 33.5523 22.972 33.7895L22.9706 33.7853Z" fill="#444444"/>
<path d="M38.4525 17.3866C36.0061 17.3866 33.5582 17.3866 31.1117 17.3866C30.9037 17.3866 30.6929 17.3991 30.4904 17.363C30.213 17.3145 30.0327 17.1453 30.0424 16.8388C30.0521 16.5337 30.2407 16.3811 30.5195 16.3381C30.6776 16.3132 30.8412 16.3229 31.0035 16.3229C36.013 16.3229 41.0225 16.3229 46.0319 16.3229C46.1471 16.3229 46.2636 16.3201 46.3787 16.3256C46.7115 16.3395 46.9723 16.4546 46.9986 16.8346C47.0222 17.1661 46.8003 17.3506 46.3495 17.3838C46.1887 17.3949 46.0264 17.388 45.8655 17.388C43.3955 17.388 40.9254 17.388 38.4553 17.388L38.4525 17.3866Z" fill="#444444"/>
<path d="M38.5982 31.3041C41.0447 31.3041 43.4925 31.3041 45.939 31.3041C46.1471 31.3041 46.3593 31.2903 46.5604 31.3291C46.835 31.3832 47.0569 31.5704 46.9806 31.8589C46.932 32.0434 46.7407 32.2306 46.5659 32.3291C46.4217 32.4095 46.2053 32.3665 46.0222 32.3665C41.0128 32.3665 36.0033 32.3665 30.9938 32.3665C30.8094 32.3665 30.5916 32.4067 30.4515 32.3221C30.2796 32.2195 30.0715 32.0073 30.0701 31.8409C30.0687 31.6745 30.2685 31.4456 30.4404 31.3527C30.6041 31.2639 30.8454 31.3041 31.0521 31.3041C33.5679 31.3014 36.0851 31.3028 38.6009 31.3028L38.5982 31.3041Z" fill="#444444"/>
<path d="M38.4512 42.2024C35.9811 42.2024 33.511 42.2024 31.041 42.201C30.8343 42.201 30.5944 42.2357 30.4307 42.1455C30.2615 42.0512 30.0632 41.8196 30.0687 41.6546C30.0743 41.4868 30.2851 41.2787 30.4585 41.1775C30.5999 41.0956 30.8177 41.14 31.0021 41.14C36.0116 41.14 41.0211 41.14 46.0306 41.14C46.1914 41.14 46.3565 41.1303 46.5146 41.1539C46.7934 41.1955 46.9834 41.3481 46.9972 41.6504C47.0111 41.9583 46.828 42.1261 46.552 42.176C46.3495 42.2121 46.1387 42.2024 45.9307 42.2024C43.4371 42.2038 40.9448 42.2024 38.4512 42.2024Z" fill="#444444"/>
<path d="M38.4567 19.9371C35.9409 19.9371 33.4264 19.9371 30.9106 19.9371C30.256 19.9371 30.0313 19.7971 30.0382 19.4198C30.0452 19.0481 30.2643 18.9205 30.93 18.9205C35.9839 18.9205 41.0377 18.9205 46.0902 18.9205C46.7573 18.9205 46.9806 19.044 46.9972 19.4046C47.0166 19.7929 46.7726 19.9371 46.0708 19.9371C43.5328 19.9385 40.9947 19.9371 38.4553 19.9371H38.4567Z" fill="#444444"/>
<path d="M38.4817 29.773C35.9658 29.773 33.4514 29.773 30.9356 29.773C30.2685 29.773 30.0507 29.6482 30.0382 29.2779C30.0257 28.8979 30.2546 28.7509 30.9023 28.7495C35.9797 28.7467 41.0558 28.7467 46.1332 28.7495C46.7725 28.7495 47.0125 28.9048 46.9986 29.2793C46.9847 29.6399 46.7531 29.7716 46.0971 29.7716C43.5591 29.773 41.0197 29.7716 38.4817 29.7716V29.773Z" fill="#444444"/>
<path d="M38.5316 44.7543C35.9936 44.7543 33.4555 44.7543 30.9161 44.7543C30.2615 44.7543 30.0355 44.617 30.0368 44.2411C30.0382 43.8667 30.256 43.7377 30.9217 43.7363C35.9755 43.7349 41.0294 43.7363 46.0819 43.7363C46.2663 43.7363 46.4785 43.7002 46.6255 43.7779C46.7809 43.8611 46.9806 44.0719 46.9695 44.2092C46.9542 44.3909 46.785 44.617 46.6186 44.7099C46.4563 44.8001 46.2136 44.7515 46.007 44.7515C43.5147 44.7529 41.0225 44.7515 38.5302 44.7515L38.5316 44.7543Z" fill="#444444"/>
<path d="M35.9672 47.3519C34.3293 47.3519 32.6914 47.3519 31.0534 47.3519C30.8926 47.3519 30.7289 47.3589 30.5694 47.3422C30.2588 47.309 30.0424 47.1578 30.0438 46.818C30.0438 46.4754 30.2671 46.334 30.575 46.2979C30.7123 46.2826 30.851 46.2882 30.9896 46.2882C34.2891 46.2882 37.5885 46.2882 40.8879 46.2882C41.0724 46.2882 41.2874 46.2452 41.4316 46.3256C41.6077 46.4227 41.8005 46.6086 41.8504 46.793C41.9281 47.0801 41.709 47.2673 41.4344 47.327C41.2569 47.3658 41.0669 47.3519 40.8838 47.3519C39.2459 47.3533 37.6079 47.3519 35.97 47.3519H35.9672Z" fill="#444444"/>
<path d="M35.9631 21.471C37.6246 21.471 39.2861 21.4683 40.9462 21.471C41.623 21.4724 41.8893 21.6402 41.8671 22.0313C41.8463 22.3892 41.5966 22.5334 40.9601 22.5334C37.6149 22.5348 34.2697 22.5334 30.9231 22.5334C30.808 22.5334 30.6915 22.5376 30.5777 22.5265C30.2657 22.4946 30.0493 22.3476 30.0424 22.0092C30.0355 21.6652 30.2574 21.5182 30.5653 21.4821C30.7483 21.4613 30.9342 21.4697 31.1186 21.4697C32.7344 21.4697 34.3487 21.4697 35.9645 21.4697L35.9631 21.471Z" fill="#444444"/>
<path d="M35.9672 34.9253C34.2835 34.9253 32.5998 34.9281 30.9175 34.9253C30.2615 34.9253 30.0368 34.7853 30.0382 34.4108C30.041 34.0377 30.2671 33.9032 30.9217 33.9032C34.2655 33.9018 37.6093 33.9032 40.9531 33.9032C41.1376 33.9032 41.3609 33.8574 41.494 33.9448C41.6577 34.053 41.8255 34.2707 41.8393 34.4524C41.8491 34.5911 41.6493 34.8061 41.4926 34.8796C41.3179 34.96 41.0863 34.9253 40.8796 34.9267C39.2417 34.9295 37.6051 34.9281 35.9672 34.9267V34.9253Z" fill="#444444"/>
</g>
</g>
<defs>
<clipPath id="clip0_15_78">
<rect width="64" height="64" fill="white"/>
</clipPath>
<clipPath id="clip1_15_78">
<rect width="30" height="35.5102" fill="white" transform="translate(17 14.0816)"/>
</clipPath>
</defs>
</svg>
