<svg width="64" height="64" viewBox="0 0 64 64" fill="none" xmlns="http://www.w3.org/2000/svg">
<g clip-path="url(#clip0_16_90)">
<circle cx="32" cy="32" r="31.5" stroke="#111111"/>
<g clip-path="url(#clip1_16_90)">
<path d="M16 31.9972C16 26.7486 16 21.5001 16 16.2515C16.0014 14.6482 16.6515 14.0009 18.2605 14.0009C25.9697 14.0009 33.6775 14.0009 41.3868 14.0009C42.9224 14.0009 43.5824 14.6482 43.5838 16.1627C43.588 19.6542 43.5866 23.1457 43.5838 26.6372C43.5838 27.3691 43.4245 27.6384 43.0042 27.6455C42.5798 27.6525 42.4035 27.3733 42.4035 26.6584C42.4007 23.2613 42.4035 19.8629 42.4007 16.4659C42.4007 16.2318 42.4557 15.9624 42.3598 15.7735C42.2512 15.5577 42.0256 15.3617 41.8042 15.2503C41.6336 15.1643 41.391 15.2179 41.1809 15.2179C33.5887 15.2179 25.9979 15.2179 18.4057 15.2179C18.1956 15.2179 17.9841 15.2207 17.774 15.2362C17.4454 15.263 17.2621 15.4534 17.2325 15.7763C17.2113 16.009 17.2099 16.2445 17.2099 16.4786C17.2099 26.8361 17.2099 37.1921 17.2099 47.5496C17.2099 47.7372 17.2113 47.9247 17.2184 48.1123C17.2311 48.5339 17.4482 48.7609 17.8727 48.7779C18.0602 48.7849 18.2478 48.7877 18.4353 48.7877C26.0036 48.7877 33.5718 48.7877 41.14 48.7877C41.2571 48.7877 41.3741 48.7906 41.4911 48.7877C42.2315 48.7638 42.3965 48.6101 42.3993 47.8613C42.4077 46.1508 42.4021 44.4403 42.4035 42.7298C42.4035 42.5197 42.4007 42.3067 42.4303 42.0994C42.4768 41.7666 42.725 41.5735 43.0183 41.6355C43.2228 41.6792 43.4174 41.9034 43.55 42.0938C43.6289 42.208 43.5852 42.4125 43.5852 42.5761C43.5866 44.3571 43.5923 46.1381 43.5852 47.9191C43.5796 49.3165 42.9041 49.9991 41.5222 49.9991C33.7199 50.0019 25.9175 50.0019 18.1152 49.9991C16.6952 49.9991 16.0056 49.3081 16.0042 47.8867C16.0014 42.5916 16.0042 37.2951 16.0042 32L16 31.9972Z" fill="#444444"/>
<path d="M46.0078 25.3991C46.4675 24.6179 46.9075 23.8748 47.3432 23.1288C47.5252 22.8157 47.7169 22.5817 48.1414 22.5394C48.343 22.5196 48.5362 22.2108 48.6956 22.0035C49.1468 21.4169 49.725 21.1067 50.4625 21.2307C51.2211 21.3577 51.7358 21.8145 51.9262 22.569C51.9925 22.8327 52.0024 23.1344 51.9445 23.3981C51.8275 23.9326 51.3636 24.3965 51.7048 25.0226C51.7669 25.1368 51.5807 25.4048 51.4792 25.5853C51.059 26.3355 50.6275 27.08 50.2016 27.8232C51.8331 28.9893 51.9572 29.5746 50.9659 31.2935C50.3694 32.3272 49.7743 33.3608 49.175 34.3944C49.0819 34.5566 49.0086 34.7738 48.8648 34.8513C48.6645 34.9585 48.3247 35.0699 48.1921 34.9754C48.0173 34.8485 47.9355 34.5298 47.9129 34.283C47.8988 34.1251 48.0568 33.9474 48.1484 33.7867C48.8013 32.6501 49.4585 31.5163 50.1099 30.3798C50.5823 29.5548 50.5189 29.3757 49.5882 28.9329C49.4585 29.1402 49.3189 29.3503 49.1933 29.5675C47.9087 31.7984 46.6509 34.0447 45.3296 36.2544C44.7204 37.2739 43.9956 38.2244 43.306 39.196C42.7518 39.9772 42.1483 40.7246 41.611 41.5156C41.1795 42.1516 40.631 42.483 39.8568 42.483C39.6622 42.483 39.4154 42.5986 39.2829 42.7425C38.9205 43.1387 38.6116 43.5843 38.269 44.0003C37.4624 44.979 36.4781 44.845 35.9803 43.6957C35.8985 43.5068 35.8181 43.3178 35.7025 43.0513C35.5742 43.1979 35.4868 43.2924 35.4064 43.3925C35.0623 43.8184 34.6252 43.9806 34.0978 43.8255C33.5972 43.6788 33.3208 43.322 33.2616 42.8087C33.2122 42.3899 33.1826 41.9697 33.1403 41.5509C33.1149 41.2999 33.0811 41.0503 32.9429 40.7781C32.871 40.9516 32.7906 41.1222 32.7299 41.3013C32.3633 42.3871 31.9981 43.4729 31.6399 44.5601C31.513 44.9451 31.3381 45.2723 30.8559 45.1524C30.4765 45.0579 30.3313 44.7265 30.4878 44.2358C30.9447 42.8116 31.4143 41.3901 31.9064 39.9772C32.1052 39.4047 32.6087 39.1128 33.1628 39.1635C33.7184 39.2143 34.1683 39.65 34.2458 40.2818C34.3304 40.9784 34.3699 41.6806 34.4362 42.4661C34.9298 41.9725 35.381 41.5015 36.1241 41.7906C36.8095 42.0571 36.849 42.7636 37.1747 43.2924C37.2537 43.2388 37.3228 43.2106 37.3637 43.1599C37.7359 42.71 38.104 42.2546 38.5073 41.7596C37.9714 40.8938 38.2732 40.1083 38.6892 39.2693C39.2053 38.2258 39.5776 37.1104 40.026 36.033C40.2234 35.5592 40.4279 35.0854 40.6817 34.6412C42.1102 32.1424 43.5542 29.6521 44.9911 27.159C45.1068 26.9587 45.2167 26.7543 45.3437 26.5272C45.0419 26.1719 44.2635 26.0266 44.6922 25.354C45.056 24.7843 45.5157 25.2158 46.0064 25.4005L46.0078 25.3991ZM48.5235 28.28C47.8255 27.8753 47.1656 27.4932 46.4563 27.0814C44.8501 29.8636 43.2708 32.6021 41.6632 35.3872C42.3852 35.8046 43.0409 36.1825 43.7319 36.583C45.3493 33.781 46.9216 31.0566 48.5235 28.28ZM50.3243 25.1636C49.6023 24.7491 48.9438 24.3697 48.2528 23.9721C47.8396 24.6912 47.4603 25.3498 47.0626 26.0422C47.7818 26.4553 48.4403 26.8332 49.1299 27.2295C49.5374 26.5258 49.9111 25.88 50.3243 25.165V25.1636ZM41.4926 39.4441C42.0171 38.8096 42.505 38.2201 43.0367 37.5785C42.3951 37.2048 41.807 36.8636 41.164 36.4899C40.8665 37.2866 40.5999 37.9988 40.3165 38.7574C40.7071 38.9844 41.0653 39.1931 41.494 39.4427L41.4926 39.4441ZM50.5231 23.886C50.5979 23.4249 50.7064 23.0794 50.6782 22.7466C50.6684 22.6282 50.3229 22.4449 50.1353 22.4505C49.6911 22.4632 49.584 22.8595 49.419 23.2374C49.7363 23.4235 50.0324 23.597 50.5231 23.886ZM40.8199 40.4651C40.4688 40.2677 40.1557 40.09 39.8455 39.9151C39.383 40.5934 39.3675 40.9868 39.7708 41.204C40.1501 41.4085 40.4335 41.2223 40.8199 40.4651Z" fill="#444444"/>
<path d="M22.6432 18.7982V20.0124H23.502C28.0003 20.0124 32.4987 20.0124 36.997 20.0124C37.2311 20.0124 37.5047 19.9532 37.688 20.0547C37.8967 20.1689 38.1308 20.4213 38.1533 20.6343C38.1703 20.7964 37.9009 21.0347 37.7063 21.156C37.5667 21.242 37.3411 21.1941 37.155 21.1941C32.2589 21.1941 27.3615 21.1955 22.4655 21.1941C21.5122 21.1941 21.3952 21.07 21.3896 20.0857C21.3867 19.6401 21.3882 19.1959 21.3896 18.7503C21.3938 17.7181 21.4939 17.6137 22.5092 17.6137C26.7495 17.6123 30.9898 17.6137 35.2315 17.6137C35.8647 17.6137 36.4964 17.6137 37.1296 17.6137C37.2932 17.6137 37.4581 17.6137 37.6203 17.6292C37.9785 17.6617 38.1914 17.8746 38.1801 18.2243C38.1689 18.5726 37.9446 18.7729 37.5865 18.7898C37.3764 18.7997 37.1648 18.7982 36.9547 18.7982C32.4564 18.7982 27.958 18.7982 23.4597 18.7982H22.6474H22.6432Z" fill="#444444"/>
<path d="M19.6212 42.2954C19.6086 44.5601 21.2034 46.2664 23.2622 46.3693C25.3887 46.4751 27.1613 44.9747 27.3798 42.8835C27.4574 42.146 27.6238 41.8964 28.0299 41.9161C28.4741 41.9373 28.6363 42.2757 28.5587 43.0174C28.288 45.6135 26.1347 47.5807 23.5457 47.6004C20.9045 47.6201 18.6863 45.6177 18.4142 42.9709C18.1575 40.4679 19.9019 38.065 22.4035 37.5249C23.7121 37.2429 24.9643 37.4403 26.1206 38.1369C26.765 38.5247 26.9314 38.8491 26.6861 39.2185C26.4633 39.5541 26.1375 39.5428 25.5156 39.1776C23.7191 38.1242 21.5193 38.5727 20.332 40.2395C19.8567 40.9079 19.61 41.651 19.6184 42.2954H19.6212Z" fill="#444444"/>
<path d="M26.758 31.4148C24.9318 31.4148 23.1057 31.4162 21.2796 31.412C21.0709 31.412 20.8213 31.4472 20.6633 31.3485C20.4744 31.2301 20.2488 30.9833 20.2502 30.7957C20.253 30.6054 20.4857 30.3755 20.6732 30.2458C20.8058 30.1541 21.0342 30.1894 21.2204 30.1894C24.9431 30.1866 28.6659 30.188 32.3887 30.188C32.4818 30.188 32.5762 30.188 32.6693 30.1908C33.0698 30.2077 33.3814 30.3868 33.3786 30.807C33.3744 31.2272 33.0571 31.4091 32.658 31.4106C31.5807 31.4176 30.5047 31.4148 29.4274 31.4148C28.5376 31.4148 27.6478 31.4148 26.758 31.4148Z" fill="#444444"/>
<path d="M32.7328 27.795C30.7431 27.795 28.7533 27.795 26.7622 27.795C26.5986 27.795 26.4351 27.795 26.2701 27.7921C25.8823 27.7879 25.6256 27.5975 25.6186 27.2097C25.6115 26.8177 25.8738 26.6316 26.2546 26.6161C26.4181 26.609 26.5817 26.609 26.7467 26.609C30.7741 26.609 34.8 26.609 38.8274 26.609C39.0375 26.609 39.2871 26.554 39.4493 26.6457C39.6608 26.7655 39.9386 27.0053 39.9386 27.1942C39.9386 27.3888 39.6693 27.6271 39.4634 27.7639C39.3308 27.8514 39.0996 27.7935 38.912 27.7935C36.8518 27.7935 34.7916 27.7935 32.7314 27.7935L32.7328 27.795Z" fill="#444444"/>
<path d="M29.7926 22.4124C31.6187 22.4124 33.4435 22.4124 35.2696 22.4124C35.4572 22.4124 35.6447 22.4054 35.8308 22.4265C36.1862 22.466 36.4358 22.6931 36.3582 23.0273C36.3089 23.2402 36.0424 23.4306 35.8323 23.5659C35.7152 23.6421 35.5136 23.5927 35.35 23.5927C31.6512 23.5927 27.9538 23.5941 24.255 23.5927C23.4935 23.5927 23.1861 23.4038 23.2101 22.9709C23.2326 22.5718 23.5217 22.4124 24.2451 22.411C26.0938 22.4096 27.9439 22.411 29.7926 22.411V22.4124Z" fill="#444444"/>
<path d="M23.3313 43.1148C23.9814 42.428 24.5243 41.8527 25.07 41.2787C25.1984 41.1434 25.3281 41.0066 25.4747 40.8938C25.7243 40.702 25.9951 40.678 26.2376 40.9036C26.5013 41.149 26.5295 41.4719 26.2954 41.7159C25.5537 42.4901 24.8063 43.2628 24.0068 43.9763C23.5725 44.3641 23.0056 44.2894 22.5374 43.8748C22.1017 43.4884 21.697 43.0654 21.2923 42.6452C21.0159 42.3575 20.9397 42.0261 21.2655 41.7244C21.5658 41.4451 21.8789 41.5368 22.1327 41.7991C22.5205 42.1996 22.8843 42.6212 23.3313 43.1148Z" fill="#444444"/>
<path d="M23.7346 34.3958C22.8914 34.3958 22.0495 34.3958 21.2062 34.3958C21.0427 34.3958 20.8326 34.4466 20.7254 34.3662C20.5251 34.2167 20.2812 33.9996 20.2544 33.7852C20.2332 33.6245 20.5124 33.413 20.6803 33.248C20.7338 33.1958 20.8593 33.2071 20.9524 33.2071C22.8491 33.2057 24.7457 33.2029 26.6409 33.2071C27.0287 33.2071 27.3432 33.3368 27.3813 33.7824C27.4123 34.1547 27.1274 34.386 26.6141 34.393C25.6538 34.4043 24.6949 34.3958 23.7346 34.3972V34.3958Z" fill="#444444"/>
<path d="M37.3439 31.4134C36.6882 31.4134 36.0339 31.4261 35.3782 31.4091C34.8818 31.395 34.5688 31.1356 34.6097 30.7816C34.659 30.3586 34.9537 30.1922 35.35 30.1908C36.6374 30.1866 37.9235 30.1795 39.211 30.1936C39.713 30.1992 40.0161 30.4587 39.9767 30.8211C39.9259 31.2921 39.5846 31.4148 39.1701 31.4148C38.5623 31.4148 37.9531 31.4148 37.3453 31.4148L37.3439 31.4134Z" fill="#444444"/>
<path d="M31.3015 34.3958C30.6472 34.3958 29.9928 34.3958 29.3385 34.3958C28.9366 34.3958 28.6391 34.2464 28.6335 33.8022C28.6264 33.341 28.9522 33.2113 29.3385 33.2085C30.6471 33.2014 31.9558 33.2029 33.2644 33.2085C33.6578 33.2099 33.9793 33.3636 33.9765 33.8036C33.9737 34.2351 33.6705 34.3972 33.2644 34.3958C32.6101 34.3944 31.9558 34.3958 31.3015 34.3958Z" fill="#444444"/>
</g>
</g>
<defs>
<clipPath id="clip0_16_90">
<rect width="64" height="64" fill="white"/>
</clipPath>
<clipPath id="clip1_16_90">
<rect width="35.9812" height="35.9981" fill="white" transform="translate(16 14.0009)"/>
</clipPath>
</defs>
</svg>
