<svg width="64" height="64" viewBox="0 0 64 64" fill="none" xmlns="http://www.w3.org/2000/svg">
<g clip-path="url(#clip0_14_45)">
<circle cx="32" cy="32" r="31.5" stroke="#111111"/>
<g clip-path="url(#clip1_14_45)">
<path d="M28.6588 36.1509H35.1493C35.1696 35.8548 35.1836 35.5774 35.2085 35.3032C35.3285 34.044 35.9752 33.2446 37.2079 32.9532C37.6131 32.8565 37.6894 32.6758 37.6863 32.3205C37.6739 30.8447 37.7066 29.369 37.6692 27.8948C37.6224 26.0185 36.3243 24.6721 34.4356 24.6035C32.7541 24.5427 31.068 24.5443 29.3881 24.6004C27.4635 24.6643 26.1779 26.0185 26.1218 27.9446C26.1 28.6942 26.1233 29.4453 26.1093 30.1964C26.0984 30.7497 25.8724 31.2016 25.2647 31.1953C24.6663 31.1876 24.4216 30.7606 24.4403 30.1886C24.4777 29.0791 24.3982 27.9477 24.5884 26.8647C24.9686 24.7048 26.7638 23.1028 28.9502 22.9906C30.9122 22.8893 32.8881 22.88 34.8486 22.9906C37.37 23.134 39.2977 25.2487 39.3491 27.781C39.3834 29.4328 39.3553 31.0863 39.3553 32.7958C40.5101 32.9236 41.5214 33.0841 42.2897 31.8763C43.0362 30.7045 44.0164 29.6822 44.8828 28.5867C45.9877 27.1888 47.4416 26.8226 49.1184 27.1561C50.6175 27.4537 51.7411 28.6661 51.7614 30.1933C51.8097 33.9458 51.8237 37.6999 51.7614 41.4509C51.7287 43.4206 50.0784 45.1052 48.1039 45.2377C46.4801 45.3468 44.8438 45.314 43.2138 45.2875C42.6138 45.2782 42.2928 45.4325 42.0637 46.0246C41.5043 47.4692 40.8919 48.8967 40.2264 50.2961C40.0675 50.6296 39.6483 50.9896 39.2977 51.0503C38.7554 51.1454 38.3829 50.4722 38.6338 49.8675C39.4254 47.9586 40.2311 46.0527 41.1054 44.1796C41.2331 43.9053 41.7599 43.6809 42.1089 43.67C43.8169 43.6185 45.5264 43.6497 47.2359 43.645C49.1511 43.6388 50.108 42.696 50.1126 40.7901C50.1204 37.5036 50.1033 34.2154 50.122 30.9289C50.1267 30.0484 50.0223 29.263 49.0966 28.8703C48.1834 28.4822 46.9866 28.7035 46.3274 29.4843C45.143 30.8883 43.9899 32.3205 42.871 33.7775C42.4487 34.3276 41.9921 34.5707 41.297 34.5349C40.3153 34.4835 39.3304 34.524 38.3455 34.524C37.0303 34.5224 36.8121 34.7593 36.9243 36.1914C37.6255 36.1914 38.3408 36.1914 39.0546 36.1914C40.401 36.1914 41.749 36.154 43.0938 36.207C43.7187 36.2319 44.0958 36.0122 44.4309 35.5167C44.9233 34.7889 45.4797 34.1032 46.0048 33.3989C46.3601 32.922 46.8058 32.682 47.3232 33.0887C47.8125 33.4752 47.666 33.9505 47.3357 34.39C46.7762 35.1349 46.17 35.8501 45.6822 36.6402C45.4033 37.0922 45.2428 37.6547 45.1711 38.1861C45.0854 38.8219 45.143 39.478 45.1508 40.1247C45.1602 40.8416 44.7924 41.1641 44.099 41.1657C43.2185 41.1657 42.338 41.1626 41.4575 41.1673C40.295 41.1735 39.8618 41.4898 39.4784 42.6274C38.6619 45.0522 37.8531 47.4786 37.0396 49.9049C36.9742 50.1013 36.9274 50.3054 36.8401 50.4924C36.6344 50.9366 36.3087 51.2171 35.7929 51.0316C35.2974 50.854 35.1369 50.4597 35.288 49.9688C35.5607 49.0806 35.8553 48.197 36.1482 47.315C36.7435 45.526 37.3357 43.7339 37.9481 41.9495C38.5169 40.2961 39.6389 39.506 41.3983 39.4873C42.0669 39.4796 42.7369 39.4873 43.4585 39.4873V37.9196H20.3309V39.4889C21.0883 39.4889 21.8051 39.4764 22.522 39.492C24.138 39.5232 25.2958 40.3273 25.8179 41.8467C26.7155 44.4616 27.5757 47.089 28.4515 49.7117C28.4593 49.7366 28.464 49.7616 28.4718 49.7865C28.6494 50.346 28.6073 50.854 27.9653 51.0441C27.3638 51.2233 27.0693 50.8322 26.8947 50.3101C26.1857 48.1767 25.4688 46.0465 24.7567 43.9131C24.5852 43.3988 24.4294 42.8783 24.2424 42.3687C23.9525 41.5802 23.3947 41.1626 22.5329 41.1704C21.601 41.1782 20.6691 41.1828 19.7372 41.1673C18.9409 41.1532 18.5544 40.8618 18.6728 40.0935C19.0016 37.9539 18.1804 36.2834 16.7639 34.7967C16.6049 34.63 16.474 34.4305 16.3524 34.2341C16.086 33.8071 16.0719 33.3755 16.5036 33.0654C16.9228 32.7646 17.3514 32.8519 17.6677 33.257C18.2723 34.0316 18.8723 34.8123 19.4395 35.6133C19.7325 36.0278 20.0504 36.221 20.5881 36.2101C22.4518 36.1727 24.3172 36.1977 26.181 36.1945C26.4085 36.1945 26.6345 36.1712 26.8526 36.1587C27.0241 34.8076 26.7841 34.5287 25.4906 34.5271C24.4029 34.5255 23.3121 34.5723 22.229 34.5022C21.8456 34.4772 21.3735 34.2575 21.1272 33.9692C19.985 32.6306 18.8894 31.2514 17.8157 29.8583C17.1753 29.0277 16.4039 28.6334 15.3395 28.7409C14.3406 28.8422 13.697 29.411 13.6923 30.4333C13.6752 34.0051 13.669 37.5768 13.6955 41.1486C13.7064 42.6492 14.7427 43.6248 16.2901 43.6466C18.0511 43.6715 19.812 43.6746 21.5714 43.6419C22.2384 43.6295 22.6217 43.8726 22.8742 44.4881C23.5817 46.2085 24.3281 47.9134 25.0621 49.6229C25.2958 50.1668 25.4127 50.7122 24.7411 51.0051C24.0523 51.3059 23.7577 50.8072 23.5287 50.2774C22.9147 48.8546 22.2726 47.4412 21.7101 45.9966C21.4903 45.4325 21.1833 45.2813 20.6161 45.2969C19.2448 45.3343 17.8718 45.3172 16.4989 45.3062C13.697 45.2766 12.0124 43.5858 12.0093 40.7901C12.0062 37.4771 12.0265 34.164 12 30.8509C11.9875 29.2505 12.5392 28.0132 14.0508 27.3462C15.5935 26.6668 17.4495 26.9893 18.5591 28.2282C19.7138 29.5186 20.7751 30.8946 21.8379 32.2628C22.1932 32.7194 22.5703 32.9111 23.1484 32.8784C23.9744 32.8316 24.805 32.8612 25.634 32.8675C27.6209 32.8815 28.4983 33.7323 28.6042 35.7364C28.6105 35.8611 28.6354 35.9857 28.6572 36.1494L28.6588 36.1509Z" fill="#444444"/>
<path d="M20.2827 21.2453C20.2967 23.5438 18.4781 25.3905 16.1826 25.4107C13.909 25.431 12.0234 23.5734 12.0109 21.3029C12 19.0402 13.8669 17.1421 16.1234 17.125C18.3877 17.1078 20.2671 18.9701 20.2811 21.2453H20.2827ZM13.6955 21.2858C13.6986 22.6415 14.8004 23.7542 16.1452 23.7604C17.4745 23.7667 18.6121 22.6431 18.6339 21.3045C18.6557 19.9331 17.5119 18.7955 16.125 18.8095C14.7614 18.8236 13.6924 19.9144 13.6955 21.2858Z" fill="#444444"/>
<path d="M47.5367 25.4076C45.2008 25.3344 43.4414 23.441 43.5224 21.0863C43.5988 18.8672 45.5296 17.0611 47.7565 17.1265C50.0488 17.1951 51.8736 19.1571 51.7864 21.4603C51.7022 23.6794 49.7667 25.4777 47.5367 25.4061V25.4076ZM47.6754 18.8095C46.3181 18.7955 45.1976 19.8723 45.1634 21.225C45.1291 22.5792 46.2932 23.7651 47.6536 23.7604C48.9985 23.7558 50.1002 22.6431 50.1049 21.2873C50.1096 19.9144 49.039 18.8236 47.677 18.8095H47.6754Z" fill="#444444"/>
<path d="M31.8721 13C34.1395 12.9813 36.0329 14.842 36.0532 17.1063C36.0735 19.3487 34.1785 21.2671 31.9282 21.2842C29.6795 21.3014 27.7721 19.4204 27.7472 17.1624C27.7207 14.9152 29.6 13.0187 31.8721 13ZM31.8893 19.5996C33.245 19.6043 34.3624 18.5119 34.3795 17.1655C34.3967 15.7941 33.2388 14.6332 31.8737 14.6519C30.5319 14.6706 29.4193 15.8004 29.4224 17.1421C29.4255 18.4901 30.5335 19.595 31.8893 19.5996Z" fill="#444444"/>
<path d="M31.1537 39.5185H32.6606V51.0503H31.1537V39.5185Z" fill="#444444"/>
<path d="M31.1366 26.2959H32.6794V27.8387H31.1366V26.2959Z" fill="#444444"/>
</g>
</g>
<defs>
<clipPath id="clip0_14_45">
<rect width="64" height="64" fill="white"/>
</clipPath>
<clipPath id="clip1_14_45">
<rect width="39.805" height="38.0893" fill="white" transform="translate(12 13)"/>
</clipPath>
</defs>
</svg>
